<?xml version="1.0" encoding="UTF-8"?> <svg xmlns="http://www.w3.org/2000/svg" width="60" height="60" viewBox="0 0 60 60" fill="none"><path d="M39.1562 49.4077C42.7272 45.1334 48.019 44.1662 52.8085 41.8897C53.8322 41.4029 53.0778 39.8153 52.054 40.3021C46.9989 42.7058 41.5784 43.7672 37.8076 48.2806C34.1118 52.704 28.3455 56.2118 23.1173 57.2169C18.0473 58.1917 11.0028 58.9011 5.98814 56.8312C16.2673 58.5073 27.1127 54.785 34.5538 47.6176C38.1532 44.1507 42.1902 41.5482 46.5981 39.2788C49.9297 37.5634 52.4695 35.2583 53.9429 32.6126C54.9009 30.8924 55.3511 29.1321 55.2892 27.4054C56.1563 27.9802 57.1211 28.7955 57.5963 29.7474C58.7054 31.9688 58.6629 35.3832 55.2178 38.3041C54.3501 39.0398 55.4953 40.3732 56.3542 39.645C59.832 36.6964 60.9368 32.5032 59.1688 28.9622C58.1579 26.9377 55.832 25.6209 54.9122 25.1625C54.8193 24.8571 54.7104 24.5538 54.5835 24.2532C53.2871 21.1809 47.5956 16.9183 43.0492 13.8834C41.7576 13.0212 40.1814 12.8563 38.7923 13.3227L30.0818 0.381462C29.4487 -0.55897 27.9907 0.422478 28.6238 1.36303L37.2497 14.1788C35.6018 15.5383 34.4804 17.5467 32.9729 19.0653C31.5988 20.4496 29.9804 21.47 28.0443 21.8371C27.9003 19.7985 27.2526 16.902 24.7334 16.7828L13.558 0.377478C12.9199 -0.559556 11.4672 0.430212 12.1055 1.36713L23.0344 17.4106C22.2082 18.1754 21.6343 19.6401 21.2006 22.0621C21.0007 23.178 22.7308 23.4881 22.9306 22.3721C23.085 21.5102 23.4435 18.2394 24.9438 18.5839C25.9392 18.8129 26.3534 21.2499 26.3199 22.824C26.3198 22.828 26.3202 22.8318 26.3202 22.8358C26.3202 22.8401 26.3197 22.8444 26.3197 22.8488C26.3414 27.0066 25.7691 32.984 22.9196 37.8487C21.2363 40.7225 19.5224 41.8703 19.4841 41.8956C19.3743 41.9663 19.2863 42.0577 19.2203 42.1609C16.6398 43.7708 14.4117 44.0445 12.8991 43.9509C12.9094 43.9459 12.9197 43.9409 12.9301 43.9358C14.2326 43.2989 15.4328 42.3548 16.5233 41.1143L17.8496 41.7244C18.8811 42.1985 19.6131 40.6008 18.5841 40.1273L17.6359 39.6912C18.3584 38.6563 18.9712 37.5489 19.5042 36.4057L21.404 37.0689C22.4726 37.4419 23.0542 35.7831 21.9832 35.4092L20.1968 34.7857C20.6489 33.6334 21.0514 32.4028 21.3985 31.1094L23.3604 31.6383C24.4333 31.9276 24.9168 30.2373 23.8177 29.941L21.816 29.4015C22.0478 28.3579 22.2464 27.2829 22.4067 26.1822C22.5701 25.0603 20.8309 24.8069 20.6674 25.9289C20.0289 30.3138 18.8122 34.8792 16.2638 38.5685C13.6328 42.3775 9.14942 43.6486 5.29484 45.919C2.16216 47.7635 -0.632133 49.9246 0.125378 53.2157C0.69975 55.711 2.51203 57.2032 4.88428 58.2735C10.5769 60.842 17.5086 60.0852 23.4488 58.9431C29.0509 57.8661 35.2163 54.1232 39.1562 49.4077ZM52.9642 24.9365C53.8783 27.1029 53.6858 29.4614 52.4073 31.7571C51.166 33.9861 48.9317 36.0341 46.0975 37.5534C43.4593 30.0024 44.3075 20.3649 44.6965 17.155C49.2672 20.4208 52.2299 23.1965 52.9642 24.9365ZM36.5795 17.5939C37.0325 17.0406 37.5008 16.4685 37.9966 15.8962C39.0203 14.7141 40.7732 14.4774 42.0735 15.3454C42.2753 15.4801 42.4743 15.614 42.6713 15.7475C42.7932 16.2851 43.0972 18.2395 41.6995 20.2778C39.6821 23.2201 34.9474 25.0739 28.0012 25.6473C28.0432 24.9413 28.0661 24.2614 28.0741 23.6157C32.1986 22.9429 34.3306 20.3404 36.5795 17.5939ZM27.8565 27.4228C27.86 27.4225 27.8635 27.4227 27.867 27.4224C35.0084 26.8716 39.9316 25.0718 42.5303 22.0694C42.3433 26.6343 42.5702 32.9245 44.5049 38.3246C44.5114 38.3427 44.5206 38.3589 44.5281 38.3762C43.5403 38.8993 42.6168 39.4093 41.7338 39.9289C39.7314 38.5819 36.282 37.3404 30.6328 38.0784C28.3057 38.3824 25.8982 39.0109 23.7331 39.8497C23.9421 39.5423 24.153 39.2135 24.3636 38.8597C26.5101 35.253 27.4731 31.1026 27.8565 27.4228ZM6.18652 47.4333C7.38119 46.7296 8.80587 45.9845 10.3387 45.2155C10.8089 45.389 11.908 45.7206 13.4403 45.7206C15.2841 45.7206 17.7541 45.2399 20.5053 43.4251C25.2197 40.3153 34.6773 38.0917 40.0483 40.9662C37.7854 42.4272 35.7028 44.0704 33.3344 46.3515C28.221 51.2768 21.6375 54.411 14.7969 55.1768C8.12253 55.9241 2.30898 54.8675 1.83807 52.8214C1.42574 51.0299 2.64502 49.5192 6.18652 47.4333Z" fill="#F46037"></path><path d="M37.3205 4.1535H53.9588C55.0923 4.1535 55.0923 2.39568 53.9588 2.39568H37.3205C36.1869 2.39568 36.1869 4.1535 37.3205 4.1535Z" fill="#F46037"></path><path d="M49.2133 11.2434C49.2133 11.7288 49.6068 12.1223 50.0921 12.1223H59.1143C60.2478 12.1223 60.2478 10.3645 59.1143 10.3645H50.0921C49.6067 10.3645 49.2133 10.758 49.2133 11.2434Z" fill="#F46037"></path><path d="M59.1143 48.4505H50.0921C48.9586 48.4505 48.9586 50.2083 50.0921 50.2083H59.1143C60.2478 50.2083 60.2478 48.4505 59.1143 48.4505Z" fill="#F46037"></path><path d="M40.9528 55.8116C40.9514 55.8116 40.9501 55.8116 40.9487 55.8116L36.0861 55.8334C34.9686 55.8385 34.9719 57.5912 36.0939 57.5912L40.9565 57.5695C42.0878 57.5643 42.0837 55.8116 40.9528 55.8116Z" fill="#F46037"></path><path d="M56.1053 55.801C56.1045 55.801 56.1035 55.801 56.1026 55.801L45.479 55.8333C44.3615 55.8367 44.3622 57.5911 45.4844 57.5911L56.108 57.5588C57.2399 57.5554 57.2372 55.801 56.1053 55.801Z" fill="#F46037"></path></svg> 