<?xml version="1.0" encoding="UTF-8"?> <svg xmlns="http://www.w3.org/2000/svg" width="62" height="60" viewBox="0 0 62 60" fill="none"><path d="M20.3406 41.2578C22.894 44.8005 25.4433 47.9691 27.1328 50.0099C27.3787 50.3069 27.6092 50.5824 27.8324 50.8477H22.7339C22.1632 50.8477 21.7006 51.3029 21.7006 51.8646C21.7006 52.4262 22.1632 52.8814 22.7339 52.8814H39.2672C39.8379 52.8814 40.3005 52.4262 40.3005 51.8646C40.3005 51.3029 39.8379 50.8477 39.2672 50.8477H34.1687C34.3919 50.5824 34.6224 50.3067 34.8694 50.0099C36.5578 47.9761 39.1061 44.8005 41.6605 41.2578C44.1949 37.8134 46.476 34.1953 48.4867 30.4313C50.5967 26.3536 51.6673 22.9685 51.6673 20.3694C51.6744 14.9688 49.4966 9.78757 45.615 5.96955C45.3558 5.70501 44.9717 5.59872 44.6103 5.69155C44.249 5.78437 43.9666 6.06179 43.8718 6.41725C43.777 6.77272 43.8844 7.15083 44.1528 7.40631C47.6466 10.8435 49.6068 15.5077 49.6006 20.3693C49.6006 22.6451 48.6066 25.72 46.6453 29.5079C44.6801 33.1847 42.4506 36.7188 39.9741 40.0833C37.4549 43.5803 34.9366 46.7132 33.2678 48.7266C32.7129 49.3957 32.2138 49.9875 31.788 50.4879C31.5893 50.7112 31.3023 50.8392 31.0007 50.8392C30.699 50.8392 30.412 50.7111 30.2133 50.4879C29.7876 49.9876 29.2885 49.3957 28.7335 48.7266C27.0648 46.7143 24.5465 43.5812 22.0272 40.0833C19.5507 36.7188 17.3213 33.1847 15.356 29.5079C13.3927 25.72 12.4007 22.6451 12.4007 20.3693C12.4001 13.0039 16.8762 6.35243 23.7675 3.4782C28.3979 1.56752 33.6141 1.56752 38.2445 3.4782C38.5846 3.62 38.9756 3.57269 39.2704 3.35379C39.5653 3.135 39.7191 2.77799 39.6739 2.41728C39.6288 2.05657 39.3915 1.74698 39.0515 1.60518C28.5287 -2.76241 16.4001 2.08922 11.9585 12.4429C10.8814 14.9508 10.3289 17.6467 10.3341 20.3693C10.3341 22.9684 11.4047 26.3536 13.5148 30.4363C15.5252 34.1986 17.8065 37.815 20.3406 41.2578Z" fill="#F46037"></path><path d="M31.0004 11.1901C31.5711 11.1901 32.0337 10.7349 32.0337 10.1733C32.0337 9.61168 31.5711 9.15647 31.0004 9.15647C26.0707 9.15635 21.8273 12.5833 20.8655 17.3412C19.9036 22.0992 22.4913 26.8631 27.0457 28.7197C31.6002 30.5763 36.8532 29.0082 39.5921 24.9746C42.331 20.9411 41.7929 15.5652 38.3071 12.1349C38.0476 11.8705 37.6635 11.7645 37.3022 11.8576C36.9409 11.9506 36.6588 12.2283 36.5642 12.5837C36.4697 12.9393 36.5774 13.3173 36.846 13.5727C39.6348 16.3169 40.0653 20.6174 37.8743 23.8444C35.6834 27.0713 31.4811 28.3259 27.8375 26.8409C24.1938 25.3558 22.1236 21.5447 22.8928 17.7383C23.662 13.9318 27.0566 11.1902 31.0004 11.1901Z" fill="#F46037"></path><path d="M61.611 55.496L55.256 44.3104C54.6814 43.3166 53.6062 42.7057 52.4443 42.7129H45.0797C44.509 42.7129 44.0464 43.1681 44.0464 43.7297C44.0464 44.2913 44.509 44.7465 45.0797 44.7465H52.4443C52.8579 44.7387 53.2439 44.9509 53.4538 45.3017L59.8068 56.4873C59.9798 56.7783 59.9762 57.1392 59.7975 57.4269C59.5864 57.7701 59.2047 57.9756 58.7972 57.9659H3.20375C2.79663 57.9754 2.41542 57.7697 2.20448 57.4269C2.02574 57.1392 2.02223 56.7783 2.19515 56.4873L8.54812 45.3017C8.75773 44.951 9.1433 44.7388 9.55659 44.7465H16.9212C17.4919 44.7465 17.9545 44.2913 17.9545 43.7297C17.9545 43.1681 17.4919 42.7129 16.9212 42.7129H9.55671C8.39421 42.7054 7.31816 43.3162 6.74297 44.3104L0.388913 55.496C-0.140874 56.4169 -0.128643 57.5465 0.421003 58.4561C1.00008 59.4247 2.06195 60.0137 3.20375 59.9998H58.7972C59.9387 60.0133 61.0002 59.4244 61.579 58.4561C62.1287 57.5464 62.1409 56.4169 61.611 55.496Z" fill="#F46037"></path><path d="M50.6339 47.7973H46.5006C46.2966 47.7976 46.0971 47.857 45.9271 47.9681L42.8271 50.0019C42.3523 50.3136 42.2242 50.9451 42.5408 51.4123C42.8576 51.8796 43.4993 52.0056 43.9741 51.694L46.8106 49.8311H50.6339C51.2046 49.8311 51.6672 49.3758 51.6672 48.8143C51.6672 48.2525 51.2046 47.7973 50.6339 47.7973Z" fill="#F46037"></path><path d="M44.4339 54.9153C44.4339 55.4769 44.8965 55.9321 45.4672 55.9321H53.7339C54.3046 55.9321 54.7672 55.4769 54.7672 54.9153C54.7672 54.3537 54.3046 53.8984 53.7339 53.8984H45.4672C44.8965 53.8984 44.4339 54.3537 44.4339 54.9153Z" fill="#F46037"></path><path d="M18.6004 51.8647C19.0559 51.8653 19.4581 51.5721 19.5905 51.1431C19.7228 50.7141 19.554 50.2505 19.175 50.0018L16.075 47.968C15.9047 47.8567 15.7048 47.7973 15.5004 47.7971H11.3671C10.7964 47.7971 10.3338 48.2525 10.3338 48.814C10.3338 49.3756 10.7965 49.8308 11.3671 49.8308H15.1904L18.03 51.6937C18.199 51.8047 18.3974 51.8642 18.6004 51.8647Z" fill="#F46037"></path><path d="M8.26706 53.8984C7.69634 53.8984 7.23376 54.3537 7.23376 54.9153C7.23376 55.4769 7.69634 55.9321 8.26706 55.9321H16.5338C17.1045 55.9321 17.5671 55.4769 17.5671 54.9153C17.5671 54.3537 17.1045 53.8984 16.5338 53.8984H8.26706Z" fill="#F46037"></path></svg> 