<?xml version="1.0" encoding="UTF-8"?> <svg xmlns="http://www.w3.org/2000/svg" width="56" height="60" viewBox="0 0 56 60" fill="none"><path d="M28 12C15.9431 12 6.07827 21.9 6.07827 34C6.07827 39.9489 8.4639 45.3649 12.3211 49.3352C12.3594 49.3929 12.404 49.4481 12.4556 49.4999C12.5121 49.5566 12.5689 49.6043 12.6276 49.645C16.5918 53.5689 22.0265 55.9999 28.0001 55.9999C40.0571 55.9999 49.9218 46.0999 49.9218 34C49.9218 21.9 40.0569 12 28 12ZM44.9396 35H47.9038C47.6676 39.7545 45.7569 44.0854 42.755 47.4077L40.6549 45.3001C40.2564 44.9002 39.6585 44.9002 39.2599 45.3001C38.8613 45.7001 38.8613 46.3001 39.2599 46.7002L41.36 48.8078C38.0495 51.8203 33.7339 53.7379 28.9964 53.9749V51C28.9964 50.4 28.5979 50 28 50C27.4021 50 27.0036 50.4 27.0036 51V53.9748C22.2412 53.7364 17.9053 51.7999 14.5879 48.76L16.6405 46.7C17.0391 46.3001 17.0391 45.7001 16.6405 45.3C16.242 44.9 15.6441 44.9 15.2455 45.3L13.1981 47.3548C10.2235 44.0394 8.33125 39.7294 8.09619 35H11.0604C11.5587 35 12.0568 34.6001 12.0568 34.0001C12.0568 33.4001 11.6583 33.0001 11.0604 33.0001H8.09619C8.33241 28.2457 10.2431 23.9148 13.245 20.5924L15.3451 22.7C15.5444 22.9001 15.7436 23 16.0426 23C16.2419 23 16.5408 22.9001 16.74 22.7C17.1386 22.3001 17.1386 21.7001 16.74 21.3L14.6399 19.1924C17.9504 16.1798 22.266 14.2623 27.0035 14.0252V17C27.0035 17.6 27.402 18 27.9999 18C28.4981 18 28.9963 17.6 28.9963 17V14.0252C33.7338 14.2623 38.0493 16.1798 41.3599 19.1924L39.2597 21.3C38.8612 21.7 38.8612 22.3 39.2597 22.7C39.4591 22.9001 39.6583 23 39.9572 23C40.2561 23 40.4555 22.9001 40.6547 22.7L42.7548 20.5924C45.7566 23.9147 47.6674 28.2457 47.9036 33.0001H44.9394C44.3415 33.0001 43.943 33.4001 43.943 34.0001C43.943 34.6001 44.3417 35 44.9396 35Z" fill="#F46037"></path><path d="M52.9111 18.1C53.7083 18.1 54.5053 17.8 55.1032 17.2C56.2989 16 56.2989 13.9999 55.1032 12.7999L51.1175 8.79996C49.9217 7.59996 47.9288 7.59996 46.7331 8.79996C45.762 9.77449 45.5796 11.2765 46.1856 12.4493L44.579 14.0617C41.047 11.0961 36.7241 9.05238 31.9856 8.31V6H33.8788C35.0746 6 35.9714 5.1 35.9714 3.99996V2.1C35.9714 0.9 35.0746 0 33.8788 0H22.0213C20.9252 0 20.0284 0.9 20.0284 2.1V3.9C20.0284 5.1 20.9252 6 22.0213 6H24.0143V8.31C19.3001 9.04852 14.9969 11.0748 11.4749 14.0159L9.84705 12.3821C10.4125 11.2196 10.2197 9.75609 9.26693 8.79996C8.0712 7.59996 6.07827 7.59996 4.88254 8.79996L0.8968 12.7999C-0.298933 13.9999 -0.298933 16 0.8968 17.2C1.49467 17.8 2.29186 18.1 3.08894 18.1C3.79657 18.1 4.50385 17.863 5.07206 17.3902L6.79127 19.1155C3.83382 23.3393 2.09242 28.4752 2.09242 33.9998C2.09242 48.3 13.7508 60 28 60C42.2492 60 53.9076 48.3 53.9076 34C53.9076 28.5008 52.1821 23.3872 49.2496 19.1746L50.9832 17.4348C51.5416 17.8779 52.2262 18.1 52.9111 18.1ZM48.1281 10.2C48.3275 9.99996 48.6264 9.9 48.9253 9.9C49.2243 9.9 49.5232 9.99996 49.7225 10.2L53.7083 14.2C54.1068 14.7 54.2065 15.4 53.7083 15.7999C53.21 16.1999 52.5125 16.1999 52.114 15.7999L51.9338 15.6191C51.8841 15.5048 51.8116 15.3964 51.7153 15.2999L48.2277 11.7998C48.1625 11.7343 48.0914 11.6805 48.0171 11.6365C47.735 11.1565 47.7713 10.5581 48.1281 10.2ZM47.4307 13.9L49.5232 16L48.0285 17.5C47.4307 16.6999 46.7332 16 46.0356 15.3L47.4307 13.9ZM22.0213 2.00004L33.9787 2.1V3.9C33.9787 3.99996 33.9787 3.99996 33.8791 3.99996L22.0213 3.9V2.00004ZM26.0071 6H29.9928V8.0768C29.3349 8.02594 28.6703 7.99992 27.9999 7.99992C27.3295 7.99992 26.665 8.02594 26.007 8.0768L26.0071 6ZM8.56934 13.9L9.9644 15.3C9.26693 16 8.56934 16.7 7.97148 17.5L6.47681 16L8.56934 13.9ZM2.29174 15.8C1.8932 15.3 1.8932 14.6 2.29174 14.2001L6.27748 10.2C6.47681 9.99996 6.77574 9.9 7.07468 9.9C7.37361 9.9 7.67254 9.99996 7.87187 10.2C8.27041 10.7 8.27041 11.4 7.87187 11.8L3.88601 15.8C3.48748 16.2 2.69028 16.2 2.29174 15.8ZM28 58C14.8469 58 4.08534 47.2 4.08534 34C4.08534 28.6481 5.85465 23.6911 8.83476 19.6881C8.87913 19.659 8.92351 19.6296 8.96788 19.6C9.86468 18.3 10.9608 17.2 12.1565 16.0999C12.1972 16.0591 12.2326 16.0136 12.2649 15.9661C15.76 12.8888 20.1479 10.8111 24.974 10.1926C25.0192 10.197 25.0647 10.1999 25.1103 10.1999C27.1032 9.99984 28.8968 9.99984 30.8896 10.1999H30.9892C31.0092 10.1999 31.0308 10.1981 31.0525 10.1961C42.778 11.7125 51.9147 21.8374 51.9147 34C51.9147 47.2 41.1531 58 28 58Z" fill="#F46037"></path><path d="M28.9964 30.1275V21C28.9964 20.4 28.5979 20 28 20C27.4021 20 27.0036 20.4 27.0036 21V30.1275C25.2895 30.5745 24.0143 32.145 24.0143 34.0001C24.0143 36.2 25.8079 38 28 38C30.1921 38 31.9857 36.2 31.9857 34.0001C31.9857 32.145 30.7105 30.5745 28.9964 30.1275ZM28 36C26.9039 36 26.0071 35.1 26.0071 34C26.0071 32.8999 26.9039 31.9999 28 31.9999C29.0961 31.9999 29.9929 32.8999 29.9929 34C29.9929 35.1 29.0961 36 28 36Z" fill="#F46037"></path></svg> 