<?xml version="1.0" encoding="UTF-8"?> <svg xmlns="http://www.w3.org/2000/svg" width="56" height="60" viewBox="0 0 56 60" fill="none"><path d="M54.9818 12.9982H50.9091C50.3468 12.9982 49.8909 13.446 49.8909 13.9983V14.9983C49.8909 14.446 49.435 13.9983 48.8727 13.9983H45.8182C45.2811 13.9972 44.8355 14.4059 44.8 14.9323L44.7297 15.9984H42.7636V13.9983C42.7636 13.446 42.3077 12.9982 41.7455 12.9982H37.6727C37.1104 12.9982 36.6545 13.446 36.6545 13.9983V19.9985C36.6545 20.5508 37.1104 20.9985 37.6727 20.9985H41.7455C42.3077 20.9985 42.7636 20.5508 42.7636 19.9985V17.9984H44.5964L44.0404 26.1797C43.9493 27.2129 43.066 28.0043 42.0102 27.9988H35.6364V27.5698C35.6348 27.1846 35.4083 26.8346 35.054 26.6698C33.6751 26.0371 32.2131 25.5962 30.7104 25.3597C30.5472 25.3367 30.3809 25.3532 30.2257 25.4077C29.6652 25.24 29.0909 25.1208 28.5091 25.0517V22.3236C28.811 22.172 29.1035 22.0026 29.3847 21.8166C32.8058 19.4655 35.6364 17.1044 35.6364 12.0232V10.9982C35.6314 7.95743 34.3499 5.05345 32.0941 2.97087C28.1251 -0.653514 22.0953 -1.00053 17.7225 2.14384C13.3 1.36231 9.06971 4.25004 8.274 8.59383C8.18911 9.05735 8.14609 9.52724 8.14545 9.99813V24.9987C8.14545 25.551 8.60135 25.9987 9.16364 25.9987C13.0568 26.0052 16.8019 24.5337 19.6163 21.8916C19.8577 22.048 20.1072 22.1921 20.3636 22.3236V25.0517C19.7817 25.1194 19.207 25.2372 18.646 25.4037C18.4912 25.3493 18.3251 25.3328 18.1623 25.3557C16.6596 25.5922 15.1976 26.0331 13.8188 26.6658C13.4644 26.8306 13.2379 27.1806 13.2364 27.5658V27.5988C9.38598 31.8469 7.21789 37.3125 7.12727 42.9994C7.12727 45.7425 7.26066 48.8996 8.08742 50.9997H6.10909V48.9996C6.10909 48.4473 5.6532 47.9995 5.09091 47.9995H1.01818C0.455891 47.9995 0 48.4473 0 48.9996V54.9998C0 55.5521 0.455891 55.9999 1.01818 55.9999H5.09091C5.6532 55.9999 6.10909 55.5521 6.10909 54.9998V52.9997H11.93C10.788 55.1631 10.1887 57.5632 10.1818 60H12.2182C12.2234 58.2796 12.5692 56.5766 13.2364 54.9858V54.9998C13.2364 55.5521 13.6923 55.9999 14.2545 55.9999H18.3273C18.8896 55.9999 19.3455 55.5521 19.3455 54.9998V50.9997H32.0931L32.6796 51.7197C34.5904 54.0718 35.6328 56.9909 35.6364 60H37.6727C37.6683 56.5369 36.4683 53.1775 34.2689 50.4706L33.49 49.5146L33.0991 48.3626C32.1514 45.5661 32.2419 42.5305 33.3546 39.7932L33.4116 39.6532C34.6752 39.2645 35.5613 38.1476 35.6364 36.8491V36.8081L46.6724 34.486C48.5455 34.0829 49.8829 32.4572 49.8909 30.5739V19.9985C49.8909 20.5508 50.3468 20.9985 50.9091 20.9985H54.9818C55.5441 20.9985 56 20.5508 56 19.9985V13.9983C56 13.446 55.5441 12.9982 54.9818 12.9982ZM40.7273 18.9985H38.6909V14.9983H40.7273V18.9985ZM4.07273 53.9998H2.03636V49.9996H4.07273V53.9998ZM11.9626 50.5776L12.0339 51.0027H10.3437C9.76233 50.2076 9.16364 48.1416 9.16364 42.9994C9.24802 38.5946 10.6658 34.3143 13.2364 30.7039V36.7771C11.8934 39.7652 11.4474 47.5395 11.9626 50.5776ZM23.8255 2.01684C28.6543 1.69732 32.9017 5.12533 33.5185 9.84013L27.946 7.10303C27.7508 7.00665 27.5288 6.97502 27.3137 7.01302L15.4845 9.0631C16.3213 5.1312 19.7422 2.24134 23.8255 2.01684ZM10.1818 23.9607V9.99813C10.1859 6.90089 12.5871 4.31467 15.7268 4.02591C14.1031 5.99848 13.2233 8.46158 13.2364 10.9982V12.0232C13.2364 16.3134 15.2575 18.6625 17.9444 20.7065C15.7949 22.6052 13.0648 23.7498 10.1818 23.9607ZM15.2727 12.0232V11.1312L27.3372 9.0401L33.5949 12.1132C33.5654 15.8374 31.8335 17.6914 28.2179 20.1785C25.9452 21.7327 22.9275 21.7327 20.6548 20.1785C17.0087 17.6704 15.2727 15.8114 15.2727 12.0232ZM19.3455 27.2698C20.0091 27.0911 20.6938 27 21.3818 26.9988C21.9441 26.9988 22.4 26.551 22.4 25.9987V23.0816C23.7343 23.4304 25.1384 23.4304 26.4727 23.0816V25.9987C26.4727 26.551 26.9286 26.9988 27.4909 26.9988C28.1789 27 28.8637 27.0911 29.5273 27.2698V28.8698L24.4364 29.9449L19.3455 28.8698V27.2698ZM13.8055 48.1126C13.743 45.1224 14.0062 42.1343 14.5905 39.1992C14.8558 39.3795 15.1414 39.5287 15.4417 39.6442C16.4682 42.331 16.5125 45.2843 15.567 47.9995H14.2545C14.0979 48.0019 13.944 48.0407 13.8055 48.1126ZM17.3091 53.9998H15.2727V49.9996H17.3091V53.9998ZM19.3455 48.9996C19.3455 48.4473 18.8896 47.9995 18.3273 47.9995H17.7164C18.487 45.3865 18.487 42.6124 17.7164 39.9993H31.1156C30.1596 42.9287 30.1778 46.081 31.1676 48.9996H19.3455ZM33.6 36.8491C33.6 37.3922 32.7295 37.9992 31.5636 37.9992H17.3091C16.1433 37.9992 15.2727 37.3922 15.2727 36.8491V28.2208C15.9337 27.9528 16.6144 27.7345 17.3091 27.5678V29.6809C17.309 30.1524 17.6441 30.5599 18.1135 30.6589L24.2225 31.95C24.3634 31.9802 24.5093 31.9802 24.6502 31.95L30.7593 30.6589C31.2287 30.5599 31.5638 30.1524 31.5636 29.6809V27.5668C32.2583 27.7335 32.9391 27.9518 33.6 28.2198V36.8491ZM46.2448 32.53L35.6364 34.7621V29.9989H42.0102C44.1286 30.0053 45.8959 28.4106 46.0687 26.3367L46.7712 15.9984H47.8545V30.5739C47.8509 31.5158 47.1818 32.329 46.2448 32.53ZM53.9636 18.9985H51.9273V14.9983H53.9636V18.9985Z" fill="#F46037"></path></svg> 